<svg xmlns="http://www.w3.org/2000/svg" viewBox="0 0 24 24" fill="#FF9900">
  <path d="M8.5 14.5c-2.9 0-5.2-2.1-5.2-4.8 0-2.6 2.1-4.7 4.8-4.8.5-2.3 2.5-4 5-4 2.6 0 4.8 1.9 5.2 4.4 2.1.4 3.7 2.2 3.7 4.4 0 2.5-2 4.5-4.5 4.5H8.5z"/>
  <path d="M4 18.5c3.2 1.3 6.4 2 9.6 2 3.1 0 6.2-.6 9-1.9.3-.1.6.2.4.5-2.5 2-6.1 3.4-9.9 3.4-3.5 0-7.2-1-9.7-2.8-.3-.2 0-.5.6-.2z"/>
  <path d="M18.9 17.5c.3-.4.8-.1.7.3-.1.7-.4 1.6-.8 2.1-.1.2-.3.1-.3-.1.1-.7.3-2.1 0-2.4-.3-.3-1.6-.1-2.2 0-.2 0-.2-.2-.1-.3.9-.6 2.4-.4 2.7.1 0 .1 0 .2 0 .3z"/>
</svg>
