<svg xmlns="http://www.w3.org/2000/svg" version="1.1" xmlns:xlink="http://www.w3.org/1999/xlink" xmlns:svgjs="http://svgjs.dev/svgjs" width="128" height="128" viewBox="0 0 128 128"><g transform="matrix(0.8046875,0,0,0.8046875,12.612792253521128,12.612792253521128)"><svg viewBox="0 0 142 142" data-background-color="#161618" preserveAspectRatio="xMidYMid meet" height="128" width="128" xmlns="http://www.w3.org/2000/svg" xmlns:xlink="http://www.w3.org/1999/xlink"><g id="tight-bounds" transform="matrix(1,0,0,1,-0.15550000000000352,-0.15550000000000352)"><svg viewBox="0 0 142.31066447748242 142.31066447748242" height="142.31066447748242" width="142.31066447748242"><g><svg></svg></g><g><svg viewBox="0 0 142.31066447748242 142.31066447748242" height="142.31066447748242" width="142.31066447748242"><g><path d="M0 71.155c0-39.298 31.857-71.155 71.155-71.155 39.298 0 71.155 31.857 71.156 71.155 0 39.298-31.857 71.155-71.156 71.156-39.298 0-71.155-31.857-71.155-71.156zM71.155 134.886c35.197 0 63.731-28.533 63.731-63.731 0-35.197-28.533-63.731-63.731-63.73-35.197 0-63.731 28.533-63.73 63.73 0 35.197 28.533 63.731 63.73 63.731z" data-fill-palette-color="tertiary" fill="#000000" stroke="transparent"></path><ellipse rx="68.30911894919156" ry="68.30911894919156" cx="71.15533223874121" cy="71.15533223874121" fill="#000000" stroke="transparent" stroke-width="0" fill-opacity="1" data-fill-palette-color="tertiary"></ellipse></g><g transform="matrix(1,0,0,1,48.05867876752708,29.989108276746492)"><svg viewBox="0 0 46.193306942428265 82.33244792398943" height="82.33244792398943" width="46.193306942428265"><g><svg viewBox="0 0 46.193306942428265 82.33244792398943" height="82.33244792398943" width="46.193306942428265"><g><svg viewBox="0 0 46.193306942428265 82.33244792398943" height="82.33244792398943" width="46.193306942428265"><g id="textblocktransform"><svg viewBox="0 0 46.193306942428265 82.33244792398943" height="82.33244792398943" width="46.193306942428265" id="textblock"><g><svg viewBox="0 0 46.193306942428265 82.33244792398943" height="82.33244792398943" width="46.193306942428265"><g transform="matrix(1,0,0,1,0,0)"><svg width="46.193306942428265" viewBox="3 -35.5 20.19 35.99" height="82.33244792398943" data-palette-color="#161618"><path d="M23.19-9.16L23.19-8.11Q23.19-6.32 22.47-4.76 21.75-3.2 20.54-2.03 19.34-0.85 17.74-0.18 16.14 0.49 14.36 0.49L14.36 0.49 11.84 0.49Q10.06 0.49 8.46-0.18 6.86-0.85 5.65-2.03 4.44-3.2 3.72-4.76 3-6.32 3-8.11L3-8.11 3-9.5 6.15-10.01 6.15-8.11Q6.15-6.93 6.63-5.92 7.1-4.91 7.91-4.14 8.72-3.37 9.78-2.93 10.84-2.49 12.01-2.49L12.01-2.49 14.21-2.49Q15.38-2.49 16.43-2.93 17.48-3.37 18.29-4.14 19.09-4.91 19.57-5.92 20.04-6.93 20.04-8.11L20.04-8.11 20.04-9.16Q20.04-10.96 19.34-12.16 18.63-13.35 17.46-14.2 16.28-15.04 14.81-15.63 13.33-16.21 11.77-16.8 10.21-17.38 8.73-18.09 7.25-18.8 6.08-19.86 4.91-20.92 4.2-22.46 3.49-24 3.49-26.25L3.49-26.25 3.49-26.9Q3.49-28.69 4.16-30.25 4.83-31.81 6.01-32.98 7.18-34.16 8.75-34.83 10.33-35.5 12.11-35.5L12.11-35.5 14.36-35.5Q16.14-35.5 17.7-34.83 19.26-34.16 20.43-32.98 21.61-31.81 22.28-30.25 22.95-28.69 22.95-26.9L22.95-26.9 22.95-26 19.8-25.49 19.8-26.9Q19.8-28.08 19.36-29.09 18.92-30.1 18.16-30.86 17.41-31.62 16.39-32.06 15.38-32.5 14.21-32.5L14.21-32.5 12.26-32.5Q11.08-32.5 10.07-32.06 9.06-31.62 8.29-30.86 7.52-30.1 7.08-29.09 6.64-28.08 6.64-26.9L6.64-26.9 6.64-26.25Q6.64-24.56 7.35-23.41 8.06-22.27 9.23-21.45 10.4-20.63 11.88-20.03 13.35-19.43 14.92-18.81 16.48-18.19 17.96-17.44 19.43-16.7 20.61-15.61 21.78-14.53 22.49-12.96 23.19-11.4 23.19-9.16L23.19-9.16Z" opacity="1" transform="matrix(1,0,0,1,0,0)" fill="#ffffff" class="wordmark-text-0" data-fill-palette-color="quaternary" id="text-0"></path></svg></g></svg></g></svg></g></svg></g><g></g></svg></g></svg></g></svg></g><defs></defs></svg><rect width="142.31066447748242" height="142.31066447748242" fill="none" stroke="none" visibility="hidden"></rect></g></svg></g></svg>