<svg xmlns="http://www.w3.org/2000/svg" version="1.1" xmlns:xlink="http://www.w3.org/1999/xlink" xmlns:svgjs="http://svgjs.dev/svgjs" width="2000" height="1999" viewBox="0 0 2000 1999"><g transform="matrix(1,0,0,1,-0.431486880466764,-0.4312711370263287)"><svg viewBox="0 0 343 343" data-background-color="#161618" preserveAspectRatio="xMidYMid meet" height="1999" width="2000" xmlns="http://www.w3.org/2000/svg" xmlns:xlink="http://www.w3.org/1999/xlink"><g id="tight-bounds" transform="matrix(1,0,0,1,0.0740000000000407,0.07400000000001228)"><svg viewBox="0 0 342.85155851775386 342.85155851775386" height="342.85155851775386" width="342.85155851775386"><g><svg></svg></g><g><svg viewBox="0 0 342.85155851775386 342.85155851775386" height="342.85155851775386" width="342.85155851775386"><g><path d="M0 171.426c0-94.676 76.75-171.426 171.426-171.426 94.676 0 171.426 76.75 171.426 171.426 0 94.676-76.75 171.426-171.426 171.426-94.676 0-171.426-76.75-171.426-171.426zM171.426 327.86c86.396 0 156.434-70.038 156.434-156.434 0-86.396-70.038-156.434-156.434-156.434-86.396 0-156.434 70.038-156.434 156.434 0 86.396 70.038 156.434 156.434 156.434z" data-fill-palette-color="tertiary" fill="#ffffff" stroke="transparent"></path><ellipse rx="164.56874808852186" ry="164.56874808852186" cx="171.42577925887693" cy="171.42577925887693" fill="#ffffff" stroke="transparent" stroke-width="0" fill-opacity="1" data-fill-palette-color="tertiary"></ellipse></g><g transform="matrix(1,0,0,1,64.84655864529837,88.30526540468921)"><svg viewBox="0 0 213.1584412271571 166.24102770837544" height="166.24102770837544" width="213.1584412271571"><g><svg viewBox="0 0 213.1584412271571 166.24102770837544" height="166.24102770837544" width="213.1584412271571"><g><svg viewBox="0 0 213.1584412271571 166.24102770837544" height="166.24102770837544" width="213.1584412271571"><g><svg viewBox="0 0 213.1584412271571 166.24102770837544" height="166.24102770837544" width="213.1584412271571"><g id="textblocktransform"><svg viewBox="0 0 213.1584412271571 166.24102770837544" height="166.24102770837544" width="213.1584412271571" id="textblock"><g><svg viewBox="0 0 213.1584412271571 166.24102770837544" height="166.24102770837544" width="213.1584412271571"><g transform="matrix(1,0,0,1,0,0)"><svg width="213.1584412271571" viewBox="3 -35.5 46.14 35.99" height="166.24102770837544" data-palette-color="#161618"><path d="M23.19-9.16L23.19-8.11Q23.19-6.32 22.47-4.76 21.75-3.2 20.54-2.03 19.34-0.85 17.74-0.18 16.14 0.49 14.36 0.49L14.36 0.49 11.84 0.49Q10.06 0.49 8.46-0.18 6.86-0.85 5.65-2.03 4.44-3.2 3.72-4.76 3-6.32 3-8.11L3-8.11 3-9.5 6.15-10.01 6.15-8.11Q6.15-6.93 6.63-5.92 7.1-4.91 7.91-4.14 8.72-3.37 9.78-2.93 10.84-2.49 12.01-2.49L12.01-2.49 14.21-2.49Q15.38-2.49 16.43-2.93 17.48-3.37 18.29-4.14 19.09-4.91 19.57-5.92 20.04-6.93 20.04-8.11L20.04-8.11 20.04-9.16Q20.04-10.96 19.34-12.16 18.63-13.35 17.46-14.2 16.28-15.04 14.81-15.63 13.33-16.21 11.77-16.8 10.21-17.38 8.73-18.09 7.25-18.8 6.08-19.86 4.91-20.92 4.2-22.46 3.49-24 3.49-26.25L3.49-26.25 3.49-26.9Q3.49-28.69 4.16-30.25 4.83-31.81 6.01-32.98 7.18-34.16 8.75-34.83 10.33-35.5 12.11-35.5L12.11-35.5 14.36-35.5Q16.14-35.5 17.7-34.83 19.26-34.16 20.43-32.98 21.61-31.81 22.28-30.25 22.95-28.69 22.95-26.9L22.95-26.9 22.95-26 19.8-25.49 19.8-26.9Q19.8-28.08 19.36-29.09 18.92-30.1 18.16-30.86 17.41-31.62 16.39-32.06 15.38-32.5 14.21-32.5L14.21-32.5 12.26-32.5Q11.08-32.5 10.07-32.06 9.06-31.62 8.29-30.86 7.52-30.1 7.08-29.09 6.64-28.08 6.64-26.9L6.64-26.9 6.64-26.25Q6.64-24.56 7.35-23.41 8.06-22.27 9.23-21.45 10.4-20.63 11.88-20.03 13.35-19.43 14.92-18.81 16.48-18.19 17.96-17.44 19.43-16.7 20.61-15.61 21.78-14.53 22.49-12.96 23.19-11.4 23.19-9.16L23.19-9.16ZM49.14-18.41L49.14 0 48.14 0 46.31-2.81Q45.16-1.29 43.53-0.4 41.89 0.49 39.89 0.49L39.89 0.49 38.06 0.49Q36.28 0.49 34.7-0.18 33.13-0.85 31.96-2.03 30.78-3.2 30.11-4.76 29.44-6.32 29.44-8.11L29.44-8.11 29.44-26.9Q29.44-28.69 30.11-30.25 30.78-31.81 31.96-32.98 33.13-34.16 34.7-34.83 36.28-35.5 38.06-35.5L38.06-35.5 40.55-35.5Q42.33-35.5 43.89-34.83 45.46-34.16 46.63-32.98 47.8-31.81 48.47-30.25 49.14-28.69 49.14-26.9L49.14-26.9 49.14-25.49 45.99-25 45.99-26.9Q45.99-28.08 45.55-29.09 45.11-30.1 44.36-30.86 43.6-31.62 42.59-32.06 41.57-32.5 40.4-32.5L40.4-32.5 38.21-32.5Q37.03-32.5 36.02-32.06 35.01-31.62 34.24-30.86 33.47-30.1 33.03-29.09 32.59-28.08 32.59-26.9L32.59-26.9 32.59-8.11Q32.59-6.93 33.03-5.92 33.47-4.91 34.24-4.14 35.01-3.37 36.02-2.93 37.03-2.49 38.21-2.49L38.21-2.49 40.4-2.49Q41.57-2.49 42.59-2.93 43.6-3.37 44.36-4.14 45.11-4.91 45.55-5.92 45.99-6.93 45.99-8.11L45.99-8.11 45.99-15.41 40.4-15.41 40.4-18.41 49.14-18.41Z" opacity="1" transform="matrix(1,0,0,1,0,0)" fill="#000000" class="wordmark-text-0" data-fill-palette-color="quaternary" id="text-0"></path></svg></g></svg></g></svg></g></svg></g><g></g></svg></g></svg></g></svg></g></svg></g><defs></defs></svg><rect width="342.85155851775386" height="342.85155851775386" fill="none" stroke="none" visibility="hidden"></rect></g></svg></g></svg>